<?xml version="1.0" encoding="utf-8"?>
<svg viewBox="126.551 97.415 136 31.139" xmlns="http://www.w3.org/2000/svg">
    <defs>
        <linearGradient id="a" x1="19.7" y1="5.438" x2="5.148" y2="5.438" gradientUnits="userSpaceOnUse"
                        gradientTransform="matrix(1, 0, 0, 1, 126.550453, 97.415039)">
            <stop stop-color="#0B828C"/>
            <stop offset="1" stop-color="#00EB81"/>
        </linearGradient>
        <linearGradient id="b" x1="19.7" y1="14.806" x2="5.148" y2="14.806" gradientUnits="userSpaceOnUse"
                        gradientTransform="matrix(1, 0, 0, 1, 126.550453, 97.415039)">
            <stop stop-color="#0B828C"/>
            <stop offset="1" stop-color="#00EB81"/>
        </linearGradient>
        <linearGradient id="c" x1="19.7" y1="24.294" x2="5.148" y2="24.294" gradientUnits="userSpaceOnUse"
                        gradientTransform="matrix(1, 0, 0, 1, 126.550453, 97.415039)">
            <stop stop-color="#0B828C"/>
            <stop offset="1" stop-color="#00EB81"/>
        </linearGradient>
    </defs>
    <path
        d="M 166.269 111.453 L 166.269 108.92 L 177.774 108.92 C 178.599 108.92 179.286 108.979 179.855 109.097 C 180.425 109.215 180.896 109.411 181.249 109.667 C 181.603 109.921 181.859 110.255 182.015 110.667 C 182.172 111.08 182.251 111.571 182.251 112.14 L 182.251 113.16 C 182.251 113.966 182.113 114.535 181.819 114.889 C 181.542 115.232 181.164 115.48 180.739 115.595 C 180.975 115.655 181.21 115.752 181.406 115.87 C 181.623 115.988 181.799 116.145 181.956 116.38 C 182.113 116.597 182.231 116.872 182.31 117.205 C 182.388 117.539 182.427 117.952 182.427 118.442 L 182.427 119.542 C 182.427 120.092 182.349 120.562 182.192 120.936 C 182.036 121.324 181.769 121.659 181.426 121.898 C 181.073 122.153 180.621 122.33 180.052 122.448 C 179.482 122.565 178.815 122.624 178.01 122.624 L 166.111 122.624 L 166.111 120.092 L 177.931 120.092 C 178.5 120.092 178.912 120.012 179.167 119.876 C 179.423 119.738 179.54 119.444 179.54 119.031 L 179.54 118.226 C 179.54 117.657 179.423 117.304 179.207 117.107 C 178.971 116.93 178.578 116.832 178.029 116.832 L 166.171 116.832 L 166.171 114.535 L 177.931 114.535 C 178.461 114.535 178.834 114.457 179.031 114.28 C 179.227 114.103 179.325 113.809 179.325 113.357 L 179.325 112.513 C 179.325 112.101 179.208 111.826 178.972 111.688 C 178.736 111.551 178.285 111.472 177.637 111.472 L 166.269 111.472 L 166.269 111.452 L 166.269 111.453 Z M 184.528 122.585 L 184.528 108.92 L 195.346 108.92 C 196.367 108.92 197.211 108.999 197.879 109.175 C 198.546 109.352 199.096 109.607 199.489 109.98 C 199.881 110.353 200.176 110.825 200.333 111.433 C 200.51 112.042 200.588 112.768 200.588 113.613 L 200.588 117.893 C 200.588 118.756 200.51 119.503 200.333 120.091 C 200.156 120.681 199.881 121.171 199.489 121.544 C 199.096 121.917 198.546 122.173 197.879 122.349 C 197.211 122.526 196.367 122.605 195.346 122.605 L 184.528 122.605 L 184.528 122.585 Z M 197.545 113.75 C 197.545 113.338 197.505 112.984 197.427 112.69 C 197.349 112.395 197.231 112.18 197.054 112.003 C 196.859 111.817 196.613 111.694 196.347 111.649 C 196.053 111.571 195.68 111.531 195.228 111.531 L 187.571 111.531 L 187.571 119.974 L 195.228 119.974 C 195.641 119.974 195.994 119.934 196.288 119.875 C 196.583 119.817 196.818 119.699 197.015 119.522 C 197.214 119.344 197.357 119.113 197.427 118.855 C 197.506 118.58 197.565 118.226 197.565 117.795 L 197.565 113.75 L 197.545 113.75 Z M 210.896 110.942 C 211.916 110.942 212.761 111.021 213.428 111.198 C 214.096 111.374 214.626 111.629 215.038 112.003 C 215.431 112.376 215.726 112.847 215.883 113.455 C 216.059 114.064 216.138 114.79 216.138 115.655 L 216.138 117.127 C 216.138 117.991 216.059 118.737 215.883 119.326 C 215.706 119.915 215.431 120.406 215.038 120.779 C 214.646 121.152 214.096 121.407 213.428 121.584 C 212.761 121.76 211.917 121.839 210.896 121.839 L 204.849 121.839 L 204.849 125.079 L 201.865 125.079 L 201.865 115.674 C 201.865 114.81 201.943 114.064 202.12 113.475 C 202.296 112.866 202.571 112.395 202.964 112.022 C 203.357 111.649 203.906 111.394 204.574 111.217 C 205.241 111.041 206.086 110.962 207.107 110.962 L 210.896 110.962 L 210.896 110.942 Z M 213.134 115.732 C 213.134 115.242 213.094 114.869 213.016 114.575 C 212.938 114.28 212.8 114.045 212.604 113.887 C 212.37 113.71 212.091 113.601 211.799 113.573 C 211.465 113.514 211.033 113.495 210.503 113.495 L 207.166 113.495 C 206.694 113.495 206.302 113.534 206.007 113.593 C 205.693 113.652 205.457 113.77 205.281 113.946 C 205.095 114.133 204.971 114.373 204.927 114.633 C 204.858 114.996 204.825 115.364 204.829 115.733 L 204.829 119.267 L 210.523 119.267 C 211.053 119.267 211.465 119.247 211.799 119.188 C 212.091 119.16 212.37 119.052 212.604 118.874 C 212.8 118.717 212.938 118.482 213.016 118.187 C 213.095 117.893 213.134 117.5 213.134 117.009 L 213.134 115.733 L 213.134 115.732 Z M 221.891 121.819 C 221.105 121.819 220.457 121.76 219.947 121.623 C 219.508 121.513 219.094 121.32 218.729 121.053 C 218.441 120.815 218.224 120.503 218.101 120.15 C 217.977 119.763 217.918 119.359 217.924 118.953 L 217.924 117.932 C 217.924 117.48 217.984 117.068 218.101 116.714 C 218.219 116.361 218.415 116.067 218.691 115.811 C 218.965 115.556 219.358 115.38 219.848 115.242 C 220.339 115.124 220.948 115.046 221.694 115.046 L 229.724 115.046 L 229.724 114.81 C 229.724 114.123 229.587 113.652 229.312 113.416 C 229.037 113.18 228.566 113.063 227.879 113.063 L 218.199 113.063 L 218.199 110.943 L 227.879 110.943 C 228.742 110.943 229.488 111.021 230.097 111.178 C 230.706 111.335 231.197 111.59 231.589 111.904 C 231.982 112.238 232.257 112.65 232.433 113.141 C 232.61 113.651 232.708 114.241 232.708 114.928 L 232.708 117.578 C 232.708 118.364 232.63 119.031 232.473 119.561 C 232.316 120.091 232.06 120.523 231.668 120.857 C 231.295 121.191 230.784 121.427 230.136 121.564 C 229.508 121.701 228.703 121.78 227.741 121.78 L 221.891 121.78 L 221.891 121.82 L 221.891 121.819 Z M 229.724 116.891 L 222.008 116.891 C 221.655 116.891 221.38 116.97 221.184 117.127 C 220.987 117.284 220.889 117.578 220.889 117.991 L 220.889 118.737 C 220.889 119.129 220.987 119.385 221.203 119.542 C 221.419 119.679 221.713 119.758 222.106 119.758 L 227.721 119.758 C 228.075 119.758 228.369 119.738 228.625 119.679 C 228.88 119.62 229.076 119.522 229.253 119.385 C 229.41 119.247 229.528 119.051 229.606 118.795 C 229.685 118.54 229.724 118.207 229.724 117.814 L 229.724 116.891 Z M 247.747 118.933 C 247.747 119.463 247.708 119.915 247.61 120.288 C 247.512 120.661 247.335 120.955 247.06 121.171 C 246.785 121.407 246.412 121.564 245.941 121.662 C 245.47 121.76 244.842 121.819 244.096 121.819 L 234.75 121.819 L 234.75 119.463 L 243.703 119.463 C 244.096 119.463 244.39 119.404 244.547 119.267 C 244.704 119.13 244.783 118.874 244.783 118.501 L 244.783 118.148 C 244.783 117.755 244.704 117.5 244.547 117.402 C 244.39 117.304 244.135 117.245 243.782 117.245 L 237.695 117.245 C 237.087 117.245 236.576 117.185 236.203 117.068 C 235.83 116.95 235.516 116.774 235.32 116.518 C 235.104 116.283 234.966 115.988 234.888 115.635 C 234.803 115.222 234.763 114.8 234.77 114.378 L 234.77 113.554 C 234.77 113.082 234.829 112.69 234.927 112.356 C 235.025 112.022 235.182 111.747 235.418 111.551 C 235.653 111.335 235.948 111.198 236.341 111.099 C 236.733 111.001 237.224 110.962 237.813 110.962 L 247.453 110.962 L 247.453 113.22 L 238.52 113.22 C 238.225 113.22 238.009 113.279 237.892 113.377 C 237.774 113.475 237.695 113.671 237.695 113.966 L 237.695 114.476 C 237.695 114.79 237.754 114.986 237.872 115.105 C 237.99 115.203 238.186 115.262 238.461 115.262 L 244.351 115.262 C 245.038 115.262 245.607 115.321 246.059 115.438 C 246.491 115.556 246.844 115.733 247.1 115.988 C 247.355 116.243 247.532 116.558 247.63 116.95 C 247.728 117.343 247.767 117.834 247.767 118.403 L 247.767 118.933 L 247.747 118.933 Z M 262.531 118.933 C 262.531 119.463 262.492 119.915 262.394 120.288 C 262.296 120.661 262.119 120.955 261.844 121.171 C 261.569 121.407 261.196 121.564 260.725 121.662 C 260.254 121.76 259.626 121.819 258.88 121.819 L 249.515 121.819 L 249.515 119.463 L 258.467 119.463 C 258.86 119.463 259.154 119.404 259.312 119.267 C 259.469 119.13 259.547 118.874 259.547 118.501 L 259.547 118.148 C 259.547 117.755 259.469 117.5 259.312 117.402 C 259.154 117.304 258.899 117.245 258.546 117.245 L 252.459 117.245 C 251.851 117.245 251.34 117.185 250.967 117.068 C 250.594 116.95 250.28 116.774 250.084 116.518 C 249.868 116.283 249.73 115.988 249.652 115.635 C 249.567 115.222 249.527 114.8 249.534 114.378 L 249.534 113.554 C 249.534 113.082 249.593 112.69 249.691 112.356 C 249.789 112.022 249.946 111.747 250.182 111.551 C 250.418 111.335 250.712 111.198 251.105 111.099 C 251.497 111.001 251.988 110.962 252.577 110.962 L 262.414 110.962 L 262.414 113.22 L 253.304 113.22 C 253.009 113.22 252.793 113.279 252.675 113.377 C 252.558 113.475 252.479 113.671 252.479 113.966 L 252.479 114.476 C 252.479 114.79 252.538 114.986 252.656 115.105 C 252.774 115.203 252.97 115.262 253.245 115.262 L 259.135 115.262 C 259.822 115.262 260.391 115.321 260.843 115.438 C 261.275 115.556 261.628 115.733 261.883 115.988 C 262.139 116.243 262.315 116.558 262.414 116.95 C 262.512 117.343 262.551 117.834 262.551 118.403 L 262.551 118.933 L 262.531 118.933 Z"
        style="fill: rgb(35, 35, 35);" transform="matrix(1, 0, 0, 1, 0, 3.552713678800501e-15)"/>
    <path d="M 143.632 108.292 L 126.61 102.147 L 126.61 97.415 L 143.632 103.56 L 143.632 108.292 Z" fill="url(#a)"
          transform="matrix(1, 0, 0, 1, 0, 3.552713678800501e-15)"/>
    <path d="M 143.554 117.657 L 126.551 111.512 L 126.551 106.78 L 143.554 112.925 L 143.554 117.657 Z" fill="url(#b)"
          transform="matrix(1, 0, 0, 1, 0, 3.552713678800501e-15)"/>
    <path d="M 143.554 127.14 L 126.551 120.995 L 126.551 116.283 L 143.554 122.408 L 143.554 127.14 Z" fill="url(#c)"
          transform="matrix(1, 0, 0, 1, 0, 3.552713678800501e-15)"/>
    <path
        d="M 160.556 128.553 L 160.674 104.973 L 143.671 98.83 L 143.671 103.561 L 156.021 108.018 L 156.021 122.193 L 143.534 117.678 L 143.534 122.409 L 160.556 128.554 L 160.556 128.553 Z"
        fill="#0B828C" transform="matrix(1, 0, 0, 1, 0, 3.552713678800501e-15)"/>
</svg>