<svg xmlns="http://www.w3.org/2000/svg" viewBox="0 0 1024 1024" version="1.1">
<path d="M 141 423.558 C 115.975 438.066, 94.843 450.326, 94.041 450.802 C 92.943 451.452, 94.928 453.238, 102.041 458.002 C 114.418 466.291, 165.744 502.563, 171.750 507.266 C 172.739 508.041, 173 504.695, 173 491.217 L 173 474.189 162.920 466.992 C 152.861 459.810, 152.846 459.793, 155.406 458.464 C 156.818 457.732, 162.366 454.516, 167.736 451.318 C 176.473 446.114, 178.078 445.503, 183 445.508 C 188.362 445.514, 189.257 445.972, 218.750 463.838 L 249 482.162 248.977 510.331 L 248.954 538.500 218.440 556.350 C 198.510 568.009, 186.625 574.375, 184.177 574.703 C 181.947 575.002, 178.924 574.577, 176.714 573.654 L 173 572.102 173 557.135 L 173 542.168 134.081 514.084 C 112.675 498.638, 94.900 486, 94.581 486 C 94.261 486, 94 493.600, 94 502.888 L 94 519.776 116.567 537.988 C 128.979 548.004, 138.991 556.315, 138.817 556.457 C 138.170 556.982, 101.374 553.008, 98.051 552.055 C 96.154 551.510, 94.497 551.170, 94.368 551.298 C 93.642 552.025, 93.861 569.254, 94.606 569.965 C 95.098 570.433, 102.250 574.746, 110.500 579.548 C 118.750 584.350, 139.070 596.316, 155.656 606.139 C 172.242 615.963, 186.083 624, 186.415 624 C 186.925 624, 273.155 574.432, 279.750 570.347 L 282 568.954 282 510.510 L 282 452.065 272.750 446.674 C 267.663 443.708, 252.475 434.870, 239 427.034 C 225.525 419.197, 208.404 409.234, 200.954 404.893 C 193.503 400.552, 187.203 397.040, 186.954 397.090 C 186.704 397.139, 166.025 409.049, 141 423.558 M 330 475.500 L 330 483 351.750 483.002 C 376.570 483.003, 379.669 483.712, 381.379 489.773 C 382.704 494.470, 380.640 500.806, 377.381 502.045 C 376 502.570, 368.149 503, 359.935 503 L 345 503 345 510.500 L 345 518 361.500 518 C 376.667 518, 378.162 518.162, 380 520 C 381.416 521.416, 382 523.333, 382 526.566 C 382 536.385, 380.222 537, 351.851 537 L 330 537 330 545 L 330 553 352.790 553 C 377.920 553, 384.706 551.987, 390.819 547.325 C 401.521 539.162, 401.762 517.952, 391.222 511.885 L 387.276 509.615 390.388 507.549 C 400.004 501.167, 400.818 481.678, 391.819 473.284 C 386.812 468.613, 382.581 468, 355.374 468 L 330 468 330 475.500 M 411 510.515 L 411 553.182 435.250 552.787 C 462.412 552.346, 466.574 551.480, 474.611 544.601 C 483.410 537.069, 486.462 526.518, 485.828 505.813 C 485.471 494.147, 485.103 491.814, 482.859 486.954 C 479.229 479.094, 475.003 474.735, 467.777 471.399 L 461.500 468.500 436.250 468.174 L 411 467.848 411 510.515 M 498 510.500 L 498 553 506.500 553 L 515 553 515 539.110 L 515 525.219 533.250 524.841 C 549.874 524.496, 551.923 524.256, 556.251 522.141 C 566.200 517.281, 570.531 507.986, 569.816 493.029 C 569.474 485.873, 568.929 483.555, 566.697 479.746 C 565.209 477.207, 562.611 474.147, 560.924 472.946 C 554.822 468.601, 550.257 468, 523.341 468 L 498 468 498 510.500 M 592.994 468.934 C 581.587 472.404, 576.609 479.688, 576.544 493 C 576.488 504.565, 579.759 510.673, 588.500 515.323 C 592.012 517.191, 594.676 517.515, 610.341 517.975 C 627.582 518.482, 628.247 518.579, 630.091 520.861 C 633.853 525.514, 631.923 534.134, 626.713 535.950 C 624.966 536.559, 614.530 537, 601.851 537 L 580 537 580 545 L 580 553 603.818 553 C 630.587 553, 635.429 552.196, 641.671 546.716 C 647.057 541.987, 648.952 536.990, 648.978 527.446 C 649.008 516.432, 646.004 510.190, 638.639 505.966 L 633.500 503.019 616.306 503.009 C 599.920 503, 598.988 502.894, 596.494 500.748 C 593.363 498.056, 592.251 491.774, 594.237 488 C 596.418 483.855, 600.745 483.118, 623.250 483.056 L 644 483 644 475.500 L 644 468 619.750 468.086 C 606.413 468.133, 594.372 468.515, 592.994 468.934 M 653.237 469.709 C 653.508 470.694, 658.605 489.837, 664.564 512.250 L 675.398 553 686.157 553 L 696.915 553 698.922 546.250 C 701.979 535.968, 713 492.834, 713 491.150 C 713 487.858, 714.179 491.337, 717.554 504.589 C 719.502 512.240, 723.163 526.263, 725.688 535.750 L 730.280 553 740.939 553 L 751.599 553 753.805 544.750 C 755.019 540.212, 760.212 521.087, 765.346 502.250 L 774.680 468 766.075 468 L 757.469 468 749.028 500.630 C 742.872 524.425, 740.392 532.615, 739.869 530.880 C 739.475 529.571, 735.743 515.599, 731.576 499.831 C 727.409 484.063, 723.720 470.434, 723.379 469.545 C 722.859 468.189, 721.291 467.974, 713.671 468.214 L 704.583 468.500 703.262 473 C 702.006 477.277, 689.980 522.036, 687.812 530.500 C 686.833 534.325, 686.490 533.295, 679.987 507 C 676.246 491.875, 672.555 477.025, 671.783 474 L 670.380 468.500 661.563 468.209 C 653.497 467.943, 652.787 468.071, 653.237 469.709 M 795.981 481.218 C 786.591 505.272, 770 550.879, 770 552.636 C 770 552.879, 773.926 552.948, 778.724 552.789 L 787.449 552.500 790.831 543.250 L 794.214 534 812.007 534 L 829.799 534 833.150 543.498 L 836.500 552.996 845.716 552.998 L 854.933 553 851.378 542.750 C 846.685 529.218, 833.210 493.325, 827.632 479.500 L 823.194 468.500 812.180 468.218 L 801.166 467.936 795.981 481.218 M 863 510.440 L 863 553 871.500 553 L 880 553 880 539 L 880 525 895.341 525 C 917.496 525, 925.322 522.067, 930.708 511.745 C 933.176 507.015, 933.448 505.469, 933.473 496 C 933.503 484.434, 932.065 480.173, 926.342 474.864 C 919.661 468.667, 918.895 468.528, 889.750 468.190 L 863 467.881 863 510.440 M 515 496.500 L 515 510 528.250 509.994 C 544.239 509.988, 548.383 509.026, 551.106 504.689 C 552.692 502.163, 553.035 500.196, 552.756 495.229 C 552.161 484.669, 548.871 483.063, 527.750 483.024 L 515 483 515 496.500 M 880 496.500 L 880 510 893.250 509.978 C 904.050 509.960, 907.265 509.608, 910.640 508.076 C 915.593 505.827, 917.488 501.430, 916.762 493.873 C 915.885 484.745, 912.060 483.014, 892.750 483.006 L 880 483 880 496.500 M 428 510.500 L 428 537 439.250 536.994 C 456.448 536.986, 462.486 534.556, 466.347 526.092 C 468.094 522.261, 468.446 519.511, 468.471 509.500 C 468.497 498.537, 468.284 497.111, 466 493 C 461.893 485.608, 457.478 484, 441.288 484 L 428 484 428 510.500 M 811.613 485 C 806.413 498.511, 799.186 518.520, 799.421 518.755 C 799.590 518.924, 805.372 518.935, 812.269 518.781 L 824.810 518.500 818.500 501 C 815.007 491.313, 811.932 484.170, 811.613 485" stroke="none" fill="#126450" fill-rule="evenodd"/>
</svg>